<svg width="75" height="120" viewBox="0 0 75 79" fill="none" xmlns="http://www.w3.org/2000/svg">
<path d="M73.5836 35.9766L40.8385 1.48698C39.9304 0.53465 38.7013 0 37.42 0C36.1387 0 34.9095 0.53465 34.0015 1.48698L27.2169 8.64252L35.8392 17.7302C36.8565 17.368 37.9498 17.3135 38.995 17.5727C40.0402 17.8319 40.9956 18.3945 41.7527 19.1967C42.5099 19.9989 43.0385 21.0086 43.2786 22.1112C43.5187 23.2138 43.4608 24.3652 43.1113 25.4349L51.4148 34.1946C52.6441 33.7402 53.9837 33.74 55.2131 34.1941C56.4426 34.6482 57.4888 35.5296 58.1796 36.6933C58.8705 37.857 59.1649 39.2337 59.0144 40.5971C58.8639 41.9605 58.2776 43.2293 57.3517 44.195C55.1052 46.5657 51.4785 46.5657 49.2283 44.195C48.429 43.352 47.8829 42.2798 47.6581 41.112C47.4334 39.9442 47.5399 38.7326 47.9644 37.6282L40.1859 29.477V50.9594C40.7335 51.2399 41.2586 51.6271 41.7124 52.1052C42.7847 53.2428 43.3864 54.7811 43.3864 56.3843C43.3864 57.9876 42.7847 59.5258 41.7124 60.6634C41.1773 61.228 40.5419 61.6759 39.8423 61.9815C39.1428 62.2871 38.3929 62.4445 37.6356 62.4445C36.8784 62.4445 36.1285 62.2871 35.429 61.9815C34.7294 61.6759 34.094 61.228 33.5589 60.6634C33.025 60.1026 32.6015 59.4362 32.3124 58.7026C32.0234 57.969 31.8747 57.1825 31.8747 56.3883C31.8747 55.594 32.0234 54.8075 32.3124 54.0739C32.6015 53.3403 33.025 52.674 33.5589 52.1131C34.129 51.5204 34.7666 51.07 35.4491 50.7737V29.0818C34.7479 28.7794 34.1105 28.3335 33.5738 27.77C33.0371 27.2065 32.6118 26.5365 32.3223 25.7987C32.0329 25.061 31.8851 24.2701 31.8875 23.4719C31.8899 22.6736 32.0424 21.8837 32.3363 21.1479L23.8603 12.1748L1.40641 35.8106C-0.468805 37.802 -0.468805 41.0262 1.40641 43.0176L34.1515 77.5072C34.5995 77.9804 35.1317 78.3558 35.7177 78.612C36.3037 78.8681 36.9319 79 37.5663 79C38.2007 79 38.8289 78.8681 39.4148 78.612C40.0008 78.3558 40.533 77.9804 40.981 77.5072L73.5723 43.1756C74.0237 42.7048 74.3822 42.1447 74.6273 41.5273C74.8723 40.91 74.9989 40.2477 75 39.5786C75.001 38.9094 74.8764 38.2467 74.6333 37.6285C74.3903 37.0103 74.0335 36.4489 73.5836 35.9766Z" fill="#FE833E"/>
</svg>
