<svg width="19" height="20" viewBox="0 0 19 20" fill="none" xmlns="http://www.w3.org/2000/svg">
<path d="M7.10256 16.4192C2.74359 17.7022 2.74359 14.2808 1 13.8531M13.2051 18.9852V15.675C13.2378 15.2671 13.1817 14.8571 13.0404 14.4722C12.8991 14.0873 12.6759 13.7363 12.3856 13.4426C15.1231 13.1432 18 12.1253 18 7.45513C17.9998 6.26091 17.5316 5.1125 16.6923 4.24758C17.0897 3.20277 17.0616 2.04792 16.6138 1.02292C16.6138 1.02292 15.5851 0.723546 13.2051 2.28883C11.207 1.75751 9.10071 1.75751 7.10256 2.28883C4.72256 0.723546 3.69385 1.02292 3.69385 1.02292C3.24607 2.04792 3.21797 3.20277 3.61538 4.24758C2.76985 5.11892 2.30117 6.27771 2.30769 7.48079C2.30769 12.1168 5.18461 13.1346 7.92205 13.4682C7.63523 13.759 7.41402 14.1058 7.27283 14.486C7.13164 14.8662 7.07363 15.2713 7.10256 15.675V18.9852" stroke="white" stroke-width="2" stroke-linecap="round" stroke-linejoin="round"/>
</svg>
