<svg width="89" height="56" viewBox="0 0 89 56" fill="none" xmlns="http://www.w3.org/2000/svg">
<path d="M73.425 16.4028C70.0877 15.1998 67.142 13.0368 64.9255 10.1617C62.4827 6.95846 59.3722 4.38242 55.8319 2.63067C52.2917 0.878918 48.4155 -0.00211833 44.5 0.0549569C39.2328 -0.335457 34.0184 1.36486 29.8951 4.81729C25.7719 8.26972 23.0423 13.221 22.25 18.685C23.8105 15.9522 26.1591 13.808 28.9579 12.5609C31.7567 11.3139 34.8613 11.0283 37.825 11.7453C41.1567 12.9833 44.0976 15.1589 46.3245 18.0329C48.7807 21.2106 51.8971 23.7601 55.4366 25.4872C58.9761 27.2144 62.8454 28.0738 66.75 28C72.0172 28.3904 77.2316 26.6901 81.3549 23.2377C85.4781 19.7852 88.2077 14.834 89 9.36997C87.4678 12.1355 85.1267 14.3121 82.3222 15.5784C79.5177 16.8448 76.3984 17.1338 73.425 16.4028ZM15.575 39.5972C18.9123 40.8002 21.858 42.9632 24.0745 45.8382C26.5173 49.0415 29.6278 51.6176 33.1681 53.3693C36.7083 55.1211 40.5844 56.0021 44.5 55.945C49.7672 56.3355 54.9816 54.6351 59.1049 51.1827C63.2281 47.7303 65.9577 42.779 66.75 37.315C65.1895 40.0478 62.8409 42.192 60.0421 43.4391C57.2433 44.6861 54.1387 44.9717 51.175 44.2547C47.8433 43.0167 44.9024 40.8411 42.6755 37.9671C40.2127 34.7972 37.095 32.2534 33.557 30.527C30.0191 28.8006 26.1531 27.9366 22.25 28C16.9828 27.6096 11.7684 29.3099 7.64512 32.7623C3.52185 36.2148 0.792287 41.166 0 46.63C1.53217 43.8645 3.87332 41.6879 6.67782 40.4216C9.48232 39.1552 12.6016 38.8662 15.575 39.5972Z" fill="#1CCCE4"/>
</svg>
